<?xml version="1.0" encoding="iso-8859-1"?>
<svg version="1.1" baseProfile="basic" xmlns="http://www.w3.org/2000/svg" xmlns:xlink="http://www.w3.org/1999/xlink" x="0px"
	 y="0px" viewBox="0 0 32 32" xml:space="preserve">
<g id="Layer_2">
</g>
<g id="Layer_1">
	<circle cx="16" cy="7" r="1"/>
	<circle cx="19" cy="10" r="1"/>
	<circle cx="16" cy="10" r="1"/>
	<circle cx="13" cy="10" r="1"/>
	<circle cx="22" cy="13" r="1"/>
	<circle cx="19" cy="13" r="1"/>
	<circle cx="16" cy="13" r="1"/>
	<circle cx="13" cy="13" r="1"/>
	<circle cx="10" cy="13" r="1"/>
	<circle cx="25" cy="16" r="1"/>
	<circle cx="22" cy="16" r="1"/>
	<circle cx="19" cy="16" r="1"/>
	<circle cx="16" cy="16" r="1"/>
	<circle cx="13" cy="16" r="1"/>
	<circle cx="10" cy="16" r="1"/>
	<circle cx="7" cy="16" r="1"/>
	<circle cx="25" cy="19" r="1"/>
	<circle cx="22" cy="19" r="1"/>
	<circle cx="10" cy="19" r="1"/>
	<circle cx="7" cy="19" r="1"/>
	<circle cx="4" cy="19" r="1"/>
	<circle cx="25" cy="22" r="1"/>
	<circle cx="22" cy="22" r="1"/>
	<circle cx="10" cy="22" r="1"/>
	<circle cx="7" cy="22" r="1"/>
	<circle cx="4" cy="22" r="1"/>
	<circle cx="25" cy="25" r="1"/>
	<circle cx="28" cy="19" r="1"/>
	<circle cx="16" cy="1" r="1"/>
	<circle cx="19" cy="4" r="1"/>
	<circle cx="13" cy="4" r="1"/>
	<circle cx="22" cy="7" r="1"/>
	<circle cx="10" cy="7" r="1"/>
	<circle cx="25" cy="10" r="1"/>
	<circle cx="7" cy="10" r="1"/>
	<circle cx="4" cy="13" r="1"/>
	<circle cx="28" cy="13" r="1"/>
	<circle cx="31" cy="16" r="1"/>
	<circle cx="1" cy="16" r="1"/>
	<circle cx="28" cy="22" r="1"/>
	<circle cx="28" cy="25" r="1"/>
	<circle cx="22" cy="25" r="1"/>
	<circle cx="10" cy="25" r="1"/>
	<circle cx="7" cy="25" r="1"/>
	<circle cx="4" cy="25" r="1"/>
	<circle cx="25" cy="28" r="1"/>
	<circle cx="28" cy="28" r="1"/>
	<circle cx="22" cy="28" r="1"/>
	<circle cx="10" cy="28" r="1"/>
	<circle cx="7" cy="28" r="1"/>
	<circle cx="4" cy="28" r="1"/>
</g>
</svg>